<svg id="logo" data-name="logo" xmlns="http://www.w3.org/2000/svg" viewBox="0 0 42.06 21.38"><defs><style>.cls-1{fill:#fff;}</style></defs><title>logo</title><path class="cls-1" d="M4.68,0A2.79,2.79,0,0,1,6.74.7a2.79,2.79,0,0,1,.7,2.06V5.64a2.79,2.79,0,0,1-.7,2.06,2.79,2.79,0,0,1-2.06.7H0V0Zm.6,2.76A1,1,0,0,0,4.2,1.68h-2v5h2A1,1,0,0,0,5.28,5.64Z"/><path class="cls-1" d="M14.4,8.28a41,41,0,0,1-4.2.24,1.69,1.69,0,0,1-1.8-1.8V3.84a1.91,1.91,0,0,1,.51-1.41,1.91,1.91,0,0,1,1.41-.51h2.4a1.91,1.91,0,0,1,1.41.51,1.91,1.91,0,0,1,.51,1.41V6.06H10.5v.48a.41.41,0,0,0,.42.42q1.19,0,3.48-.18ZM11,3.42a.42.42,0,0,0-.48.48v.66h2V3.9a.42.42,0,0,0-.48-.48Z"/><path class="cls-1" d="M21.6,8.28a41,41,0,0,1-4.2.24,1.69,1.69,0,0,1-1.8-1.8V3.84a1.91,1.91,0,0,1,.51-1.41,1.91,1.91,0,0,1,1.41-.51h2.4a1.91,1.91,0,0,1,1.41.51,1.91,1.91,0,0,1,.51,1.41V6.06H17.7v.48a.41.41,0,0,0,.42.42q1.18,0,3.48-.18ZM18.18,3.42a.42.42,0,0,0-.48.48v.66h2V3.9a.42.42,0,0,0-.48-.48Z"/><path class="cls-1" d="M25,8.4v2h-2.1V2h1.86l.12.6a4.38,4.38,0,0,1,1.16-.55,3.86,3.86,0,0,1,1-.17h.54a1.77,1.77,0,0,1,1.31.49,1.77,1.77,0,0,1,.49,1.31V6.48a1.91,1.91,0,0,1-.51,1.41,1.91,1.91,0,0,1-1.41.51Zm1.44-4.74A5.14,5.14,0,0,0,25,3.9V6.78h1.8a.42.42,0,0,0,.48-.48V4.08a.41.41,0,0,0-.42-.42Z"/><path class="cls-1" d="M7.2,16.58l-1.68,3H3.84l-1.68-3v4.68H0v-8.4H2.28l2.4,4.44,2.4-4.44H9.36v8.4H7.2Z"/><path class="cls-1" d="M11,15a36.66,36.66,0,0,1,4-.24,1.69,1.69,0,0,1,1.8,1.8v4.68H14.88l-.12-.6a4.05,4.05,0,0,1-1.16.54,3.53,3.53,0,0,1-1,.18h-.42a1.69,1.69,0,0,1-1.8-1.8V19a1.69,1.69,0,0,1,1.8-1.8h2.46v-.48a.41.41,0,0,0-.42-.42c-.52,0-1.09,0-1.72.07L11,16.52ZM13.2,19.7a5.14,5.14,0,0,0,1.44-.24v-.72H12.9a.41.41,0,0,0-.42.42v.12a.41.41,0,0,0,.42.42Z"/><path class="cls-1" d="M21.48,16.64a3.83,3.83,0,0,0-1.56.36v4.26h-2.1V14.9h1.86l.12.78a3.26,3.26,0,0,1,2.16-.9h.54v1.86Z"/><path class="cls-1" d="M25.44,18.74v2.52h-2.1v-8.4h2.1v4.26h1l1.32-2.22h2.22L28.14,18l1.8,3.3H27.72l-1.38-2.52Z"/><path class="cls-1" d="M36.3,21.14a41.11,41.11,0,0,1-4.2.24,1.69,1.69,0,0,1-1.8-1.8V16.7a1.77,1.77,0,0,1,1.92-1.92h2.4a1.77,1.77,0,0,1,1.92,1.92v2.22H32.4v.48a.41.41,0,0,0,.42.42q1.18,0,3.48-.18Zm-3.42-4.86a.42.42,0,0,0-.48.48v.66h2v-.66a.42.42,0,0,0-.48-.48Z"/><path class="cls-1" d="M42.06,21.26a22.35,22.35,0,0,1-2.28.12,1.69,1.69,0,0,1-1.8-1.8V16.52h-.72V14.9H38l.24-1.44h1.86V14.9h1.5v1.62h-1.5v2.76a.41.41,0,0,0,.42.42h1.56Z"/></svg>